<svg width="18" height="16" viewBox="0 0 18 16" fill="none" xmlns="http://www.w3.org/2000/svg">
<path fill-rule="evenodd" clip-rule="evenodd" d="M13.8947 11.0715L17.6717 14.6313C17.8404 14.8079 17.8321 15.0783 17.6529 15.2454L16.9919 15.8684C16.9032 15.9526 16.7825 16 16.6567 16C16.5308 16 16.4101 15.9526 16.3214 15.8684L12.5444 12.3085C12.4399 12.21 12.3451 12.1028 12.2611 11.9881L11.5529 11.0982C10.3811 11.9801 8.92598 12.4602 7.42644 12.4598C4.33643 12.4699 1.65133 10.461 0.960791 7.62231C0.270255 4.78365 1.75858 1.87288 4.54463 0.613257C7.33069 -0.646363 10.6709 0.0813446 12.5878 2.36555C14.5047 4.64977 14.4867 7.88086 12.5444 10.1459L13.4886 10.76C13.6361 10.849 13.7723 10.9535 13.8947 11.0715ZM2.70557 6.23017C2.70557 8.68773 4.81938 10.68 7.4269 10.68C8.67908 10.68 9.87997 10.2112 10.7654 9.37666C11.6508 8.54216 12.1482 7.41034 12.1482 6.23017C12.1482 3.77262 10.0344 1.78037 7.4269 1.78037C4.81938 1.78037 2.70557 3.77262 2.70557 6.23017Z" fill="black"/>
</svg>
