<svg width="19" height="137" viewBox="0 0 19 137" fill="none" xmlns="http://www.w3.org/2000/svg">
<path fill-rule="evenodd" clip-rule="evenodd" d="M9.9003 120.782C4.9848 120.782 1 124.408 1 128.882C1 133.355 4.9848 136.982 9.9003 136.982C14.8158 136.982 18.8006 133.355 18.8006 128.882C18.8006 126.734 17.8629 124.673 16.1938 123.154C14.5246 121.635 12.2608 120.782 9.9003 120.782ZM17.0204 128.882C16.0011 128.604 14.9428 128.462 13.8786 128.461C13.2454 128.469 12.6142 128.526 11.9917 128.631C11.7692 128.137 11.5378 127.659 11.2886 127.181C12.7523 126.515 14.087 125.637 15.2403 124.581C16.3955 125.766 17.0294 127.298 17.0204 128.882ZM10.6746 126.112C11.9952 125.509 13.1979 124.713 14.2347 123.755C12.9931 122.882 11.4694 122.406 9.90026 122.402C9.32413 122.404 8.75038 122.47 8.19141 122.597C9.11973 123.707 9.95005 124.882 10.6746 126.112ZM6.89211 123.018C7.85673 124.15 8.71705 125.353 9.46431 126.614C7.901 127.17 6.23848 127.458 4.56022 127.464C4.03378 127.459 3.50797 127.429 2.98486 127.375C3.49059 125.457 4.92878 123.853 6.89211 123.018ZM2.77979 128.574V128.882C2.78391 130.48 3.43689 132.021 4.61324 133.207C5.99814 131.158 8.15598 129.637 10.6832 128.931C10.4963 128.509 10.2827 128.104 10.0691 127.699L10.0691 127.699C8.31789 128.342 6.44805 128.675 4.55984 128.679C3.96468 128.678 3.37021 128.642 2.77979 128.574ZM5.61035 134.041C6.83119 132.119 8.81573 130.695 11.1552 130.064C11.781 131.638 12.2255 133.267 12.4814 134.924C10.1807 135.748 7.57426 135.416 5.61035 134.05V134.041ZM12.4722 129.789C13.0402 131.267 13.4631 132.787 13.736 134.333C15.3702 133.383 16.5081 131.868 16.8867 130.137C15.9166 129.843 14.9009 129.693 13.8784 129.692C13.4078 129.696 12.938 129.728 12.4722 129.789Z" fill="#7B7B7B"/>
<path d="M18.796 42.9614C18.3103 43.6173 17.7232 44.1895 17.0574 44.6559C17.0574 44.8272 17.0574 44.9986 17.0574 45.1794C17.0628 48.2912 15.8351 51.2749 13.6498 53.4618C11.4644 55.6487 8.50415 56.8558 5.43257 56.8124C3.65683 56.8184 1.90382 56.4079 0.310872 55.6129C0.22498 55.575 0.169581 55.4889 0.169907 55.394V55.2893C0.169907 55.1526 0.279301 55.0417 0.414245 55.0417C2.15976 54.9835 3.84301 54.3707 5.22583 53.2901C3.64589 53.2579 2.22435 52.3103 1.57015 50.8531C1.53711 50.7735 1.5474 50.6822 1.5973 50.6123C1.64721 50.5423 1.72952 50.5037 1.81449 50.5104C2.29467 50.5593 2.77964 50.514 3.24293 50.3771C1.49881 50.0106 0.188305 48.5445 0.000750257 46.7502C-0.00591569 46.6641 0.0321828 46.5807 0.101282 46.5302C0.170382 46.4796 0.260494 46.4692 0.339065 46.5027C0.807109 46.7118 1.31236 46.8219 1.82389 46.8263C0.295629 45.8107 -0.364477 43.879 0.216895 42.1236C0.276907 41.9531 0.421084 41.8271 0.596444 41.7919C0.771805 41.7568 0.952481 41.8177 1.07208 41.9523C3.13437 44.1746 5.96799 45.4989 8.97548 45.6459C8.89844 45.3347 8.86055 45.0148 8.8627 44.6939C8.89083 43.0115 9.91899 41.5127 11.4658 40.8993C13.0127 40.2859 14.7721 40.6792 15.9203 41.8952C16.703 41.7442 17.4597 41.478 18.1663 41.105C18.2181 41.0723 18.2837 41.0723 18.3355 41.105C18.3678 41.1575 18.3678 41.224 18.3355 41.2764C17.9932 42.07 17.415 42.7355 16.6815 43.1803C17.3239 43.1049 17.9549 42.9515 18.561 42.7234C18.6121 42.6882 18.6792 42.6882 18.7302 42.7234C18.773 42.7432 18.8049 42.7811 18.8176 42.8269C18.8303 42.8728 18.8224 42.922 18.796 42.9614Z" fill="#7B7B7B"/>
<path d="M13.398 3.22905H10.746C10.2578 3.22905 9.862 3.632 9.862 4.12905V6.82905H13.398C13.4985 6.82678 13.5939 6.8744 13.6537 6.95674C13.7135 7.03908 13.7302 7.14586 13.6986 7.24305L13.0444 9.22305C12.9841 9.40478 12.8173 9.52763 12.6289 9.52905H9.862V16.2791C9.862 16.5276 9.66411 16.7291 9.42 16.7291H7.21C6.96589 16.7291 6.768 16.5276 6.768 16.2791V9.52905H5.442C5.19789 9.52905 5 9.32758 5 9.07905V7.27905C5 7.03052 5.19789 6.82905 5.442 6.82905H6.768V4.12905C6.768 2.14083 8.35112 0.529053 10.304 0.529053H13.398C13.6421 0.529053 13.84 0.730525 13.84 0.979053V2.77905C13.84 3.02758 13.6421 3.22905 13.398 3.22905Z" fill="#7B7B7B"/>
<path fill-rule="evenodd" clip-rule="evenodd" d="M1 82.6037C1 81.5511 1.89543 80.6978 3 80.6978C3.53043 80.6978 4.03914 80.8986 4.41421 81.256C4.78929 81.6134 5 82.0982 5 82.6037C5 83.6563 4.10457 84.5096 3 84.5096C1.89543 84.5096 1 83.6563 1 82.6037ZM18.5 90.6178C18.5345 88.5545 17.0574 86.7465 14.95 86.2723C13.5377 85.9825 12.0657 86.3625 11 87.292V86.8917C11 86.6286 10.7761 86.4152 10.5 86.4152H8C7.72386 86.4152 7.5 86.6286 7.5 86.8917V96.4213C7.5 96.6845 7.72386 96.8978 8 96.8978H10.5C10.7761 96.8978 11 96.6845 11 96.4213V91.0466C10.9753 90.0896 11.6752 89.2538 12.66 89.0645C13.2463 88.968 13.8473 89.1254 14.2996 89.4938C14.752 89.8622 15.0087 90.4034 15 90.9704V96.4213C15 96.6845 15.2239 96.8978 15.5 96.8978H18C18.2761 96.8978 18.5 96.6845 18.5 96.4213V90.6178ZM5 86.8919V96.4212C5 96.6844 4.77614 96.8977 4.5 96.8977H2C1.72386 96.8977 1.5 96.6844 1.5 96.4212V86.8919C1.5 86.6287 1.72386 86.4154 2 86.4154H4.5C4.77614 86.4154 5 86.6287 5 86.8919Z" fill="#7B7B7B"/>
</svg>
